<svg xmlns="http://www.w3.org/2000/svg" width="168" height="32" viewBox="0 0 168 32" fill="none"><g clip-path="url(#clip0_6082_24923)"><path d="M165 5.5C164.672 5.5 164.347 5.56466 164.043 5.6903C163.74 5.81594 163.464 6.00009 163.232 6.23223C162.763 6.70107 162.5 7.33696 162.5 8C162.5 8.66304 162.763 9.29893 163.232 9.76777C163.464 9.99991 163.74 10.1841 164.043 10.3097C164.347 10.4353 164.672 10.5 165 10.5C165.663 10.5 166.299 10.2366 166.768 9.76777C167.237 9.29893 167.5 8.66304 167.5 8C167.5 7.6717 167.435 7.34661 167.31 7.04329C167.184 6.73998 167 6.46438 166.768 6.23223C166.536 6.00009 166.26 5.81594 165.957 5.6903C165.653 5.56466 165.328 5.5 165 5.5ZM165 10C163.898 10 163 9.1025 163 8C163 6.8975 163.898 6 165 6C166.102 6 167 6.8975 167 8C167 9.1025 166.102 10 165 10ZM165.062 8.3175H164.703V9.125H164.25V6.9275H165.065C165.322 6.9275 165.523 6.985 165.665 7.1C165.805 7.2175 165.875 7.375 165.875 7.59C165.875 7.74 165.842 7.865 165.777 7.965C165.712 8.065 165.615 8.145 165.483 8.2025L165.957 9.1V9.125H165.473L165.062 8.3175ZM164.703 7.9525H165.068C165.18 7.9525 165.267 7.9225 165.33 7.865C165.392 7.8075 165.422 7.7275 165.422 7.625C165.422 7.5225 165.395 7.4425 165.335 7.3825C165.278 7.3225 165.188 7.295 165.065 7.295H164.703V7.9525Z" fill="#0A1226"></path></g><path d="M14.5589 0L0 6.88493L14.5242 13.9403L29.0653 6.90281L14.5589 0Z" fill="#82BAE4"></path><path d="M29.0645 24.7206L14.5234 31.7581V13.9408L29.0645 6.90332V24.7206Z" fill="#1F4274"></path><path d="M29.0645 24.7206L14.5234 31.7581V13.9408L29.0645 6.90332V24.7206Z" fill="#2462AA"></path><path d="M0.0078125 24.7206L14.5499 31.7581V13.9408L0.0078125 6.90332V24.7206Z" fill="#4775B8"></path><path d="M33.4375 20.8125V10.3252H36.7085C38.0972 10.3252 39.1325 10.5283 39.8153 10.9333C40.4981 11.3394 40.839 12.0138 40.839 12.9586C40.839 13.1111 40.8295 13.2616 40.8106 13.4099C40.7917 13.5583 40.7485 13.7266 40.6822 13.915C40.6149 14.1033 40.5276 14.2737 40.4171 14.4273C40.3077 14.5799 40.1541 14.7293 39.9595 14.8745C39.7638 15.0197 39.5344 15.1333 39.2724 15.2143C39.9216 15.3721 40.4182 15.6741 40.7612 16.1201C41.1052 16.5662 41.2767 17.1165 41.2767 17.7698C41.2767 18.7578 40.9274 19.5121 40.2277 20.0318C39.5281 20.5516 38.5612 20.8125 37.325 20.8125H33.4375ZM35.3776 14.6567H37.0378C38.3213 14.6567 38.9631 14.1675 38.9631 13.189C38.9631 12.6398 38.7779 12.2632 38.4087 12.058C38.0394 11.8528 37.4502 11.7497 36.6443 11.7497H35.3776V14.6567ZM35.3776 19.409H37.0599C38.5486 19.409 39.2935 18.8272 39.2935 17.6625C39.2935 17.0755 39.1073 16.6536 38.7348 16.3958C38.3624 16.138 37.7879 16.0097 37.0094 16.0097H35.3776V19.409Z" fill="#0A1226"></path><path d="M45.5558 20.9203C45.016 20.9203 44.5689 20.8572 44.2133 20.7309C43.8577 20.6046 43.5778 20.4026 43.3716 20.1259C43.1665 19.8492 43.0234 19.5199 42.9424 19.138C42.8613 18.7561 42.8203 18.2816 42.8203 17.7135V10.0468L44.6962 9.9248V17.6767C44.6962 18.3826 44.7793 18.8613 44.9466 19.1117C45.1139 19.3621 45.4379 19.4873 45.9198 19.4873C46.1586 19.4873 46.4616 19.461 46.8288 19.4084L46.8793 20.7467C46.874 20.7467 46.8162 20.7583 46.7036 20.7825C46.591 20.8067 46.4837 20.8266 46.3817 20.8435C46.2786 20.8603 46.1491 20.8771 45.9913 20.894C45.8346 20.9119 45.6894 20.9203 45.5558 20.9203Z" fill="#0A1226"></path><path d="M51.1492 20.9634C49.9845 20.9634 49.0681 20.5868 48.4 19.8324C47.732 19.0781 47.3984 18.0859 47.3984 16.855C47.3984 15.5851 47.732 14.5846 48.4 13.8523C49.0681 13.12 50.0108 12.7539 51.227 12.7539C52.4012 12.7539 53.3207 13.1274 53.9867 13.8744C54.6527 14.6214 54.9851 15.6146 54.9851 16.856C54.9851 18.1112 54.6484 19.1096 53.9762 19.8514C53.3039 20.592 52.3612 20.9634 51.1492 20.9634ZM51.1986 19.5389C51.833 19.5389 52.3107 19.3074 52.6305 18.8445C52.9504 18.3816 53.1103 17.7188 53.1103 16.855C53.1103 15.9817 52.9504 15.3158 52.6305 14.8581C52.3107 14.4004 51.8288 14.1711 51.1849 14.1711C50.5505 14.1711 50.0718 14.4015 49.7499 14.8623C49.4279 15.3231 49.267 15.9902 49.267 16.8634C49.267 17.723 49.429 18.3837 49.7541 18.8466C50.0771 19.3074 50.56 19.5389 51.1986 19.5389Z" fill="#0A1226"></path><path d="M59.9633 20.9636C58.7608 20.9636 57.8244 20.6059 57.1542 19.8894C56.4841 19.174 56.1484 18.1503 56.1484 16.8183C56.1484 15.5295 56.4998 14.53 57.2047 13.8188C57.9097 13.1076 58.8355 12.752 59.9854 12.752C60.906 12.752 61.6846 12.9497 62.319 13.3464L61.875 14.6847C61.2259 14.3459 60.622 14.1765 60.0643 14.1765C59.4299 14.1765 58.9302 14.4037 58.5651 14.8561C58.2 15.3096 58.017 15.9703 58.017 16.8394C58.017 17.7179 58.1969 18.3859 58.5577 18.8436C58.9176 19.3013 59.4278 19.5306 60.0864 19.5306C60.7735 19.5306 61.4342 19.3276 62.0696 18.9225L62.2485 20.347C61.9192 20.5669 61.5783 20.7237 61.2248 20.8194C60.8703 20.9152 60.4505 20.9636 59.9633 20.9636Z" fill="#0A1226"></path><path d="M63.7344 20.813V10.0468L65.6103 9.9248V14.756L65.5671 16.3447C65.5713 16.3405 65.6208 16.2921 65.7134 16.2016C65.806 16.1111 65.8575 16.0606 65.867 16.0512C66.129 15.7408 66.4151 15.421 66.7223 15.0917C67.0306 14.7623 67.4188 14.3594 67.8891 13.8817C68.3594 13.4041 68.6656 13.0916 68.8086 12.9443H71.0422L67.807 16.2942L71.2506 20.8109H68.9812L66.3899 17.239L65.6092 17.8545V20.8109H63.7344V20.813Z" fill="#0A1226"></path><path d="M75.2993 20.9636C74.0967 20.9636 73.1604 20.6059 72.4902 19.8894C71.82 19.174 71.4844 18.1503 71.4844 16.8183C71.4844 15.5295 71.8358 14.53 72.5407 13.8188C73.2445 13.1076 74.1714 12.752 75.3214 12.752C76.242 12.752 77.0205 12.9497 77.6549 13.3464L77.2109 14.6847C76.5618 14.3459 75.9579 14.1765 75.4003 14.1765C74.7659 14.1765 74.2661 14.4037 73.901 14.8561C73.536 15.3096 73.3529 15.9703 73.3529 16.8394C73.3529 17.7179 73.5328 18.3859 73.8937 18.8436C74.2546 19.3013 74.7638 19.5306 75.4224 19.5306C76.1094 19.5306 76.7701 19.3276 77.4056 18.9225L77.5844 20.347C77.2551 20.5669 76.9143 20.7237 76.5607 20.8194C76.2062 20.9152 75.7864 20.9636 75.2993 20.9636Z" fill="#0A1226"></path><path d="M79.0703 20.813V10.0468L80.9462 9.9248V12.1942C80.9462 12.3036 80.9388 12.6077 80.9252 13.1063C80.9104 13.605 80.9041 13.8597 80.9041 13.8691C81.5291 13.1242 82.3686 12.7528 83.4239 12.7528C84.3024 12.7528 84.9831 13.0043 85.4671 13.5082C85.951 14.0122 86.1941 14.7855 86.1941 15.8313V20.813H84.3171V16.0385C84.3171 15.3947 84.214 14.9223 84.0089 14.6214C83.8037 14.3205 83.4555 14.17 82.9641 14.17C82.5443 14.17 82.1719 14.2763 81.8478 14.4888C81.5238 14.7013 81.2797 14.9749 81.1177 15.3084C81.003 15.7471 80.9462 16.3205 80.9462 17.0265V20.813H79.0703Z" fill="#0A1226"></path><path d="M90.1123 20.9636C89.3821 20.9636 88.7919 20.7616 88.3406 20.3586C87.8892 19.9557 87.6641 19.3749 87.6641 18.6153C87.6641 17.7989 87.9313 17.1939 88.4658 16.8004C89.0002 16.4069 89.8072 16.1576 90.8856 16.0524C91.0339 16.0334 91.1938 16.0145 91.3653 15.9956C91.5368 15.9766 91.7304 15.9577 91.945 15.9388C92.1597 15.9198 92.3291 15.903 92.4532 15.8883V15.4727C92.4532 14.995 92.3438 14.6489 92.1239 14.4311C91.904 14.2144 91.5705 14.105 91.1213 14.105C90.4816 14.105 89.6925 14.2838 88.7519 14.6415C88.7467 14.6268 88.6688 14.4101 88.5152 13.9903C88.3627 13.5705 88.2838 13.3559 88.2785 13.3464C89.2043 12.9508 90.2059 12.752 91.2854 12.752C92.3448 12.752 93.115 12.9824 93.5979 13.4432C94.0798 13.904 94.3207 14.6489 94.3207 15.6799V20.8121H92.9319C92.9277 20.7931 92.8751 20.6332 92.7741 20.3323C92.6742 20.0314 92.6237 19.8715 92.6237 19.8526C92.2323 20.2345 91.8493 20.5143 91.4748 20.6942C91.1013 20.8741 90.6468 20.9636 90.1123 20.9636ZM90.6205 19.6316C91.055 19.6316 91.4327 19.5275 91.7546 19.3202C92.0766 19.1129 92.307 18.8604 92.4458 18.5648V17.0477C92.4311 17.0477 92.3059 17.0571 92.0702 17.0761C91.8335 17.095 91.7062 17.1045 91.6873 17.1045C90.9287 17.1718 90.3722 17.3149 90.0197 17.5337C89.6662 17.7536 89.4895 18.1061 89.4895 18.5932C89.4895 18.9267 89.5873 19.1834 89.783 19.3623C89.9787 19.5422 90.2585 19.6316 90.6205 19.6316Z" fill="#0A1226"></path><path d="M96.2578 11.8007V10.1973H98.14V11.8007H96.2578ZM96.2578 20.8129V12.9464H98.1337V20.8129H96.2578Z" fill="#0A1226"></path><path d="M100.086 20.813V12.9464H101.597L101.804 13.9417C102.606 13.1495 103.496 12.7539 104.474 12.7539C105.391 12.7539 106.077 13.018 106.532 13.5451C106.988 14.0722 107.216 14.8371 107.216 15.8397V20.8151H105.334V16.0691C105.329 15.4347 105.226 14.9591 105.026 14.6445C104.826 14.3299 104.465 14.1721 103.945 14.1721C103.539 14.1721 103.169 14.2763 102.832 14.4836C102.495 14.6908 102.251 14.9528 102.099 15.2674C102.008 15.6398 101.963 16.2122 101.963 16.9854V20.8151H100.086V20.813Z" fill="#0A1226"></path><path d="M117.692 20.9629C116.16 20.9629 114.946 20.481 114.049 19.5173C113.151 18.5536 112.703 17.2216 112.703 15.5235C112.703 13.9107 113.172 12.6166 114.11 11.6402C115.047 10.6639 116.275 10.1768 117.792 10.1768C119.019 10.1768 120.056 10.4608 120.906 11.029L120.298 12.4966C119.482 11.9958 118.661 11.7454 117.835 11.7454C116.872 11.7454 116.109 12.0926 115.548 12.787C114.987 13.4814 114.707 14.4136 114.707 15.5824C114.707 16.7945 114.978 17.7319 115.52 18.3957C116.061 19.0586 116.834 19.391 117.835 19.391C118.714 19.391 119.584 19.1711 120.448 18.7324L120.705 20.2495C119.904 20.724 118.9 20.9629 117.692 20.9629Z" fill="#0A1226"></path><path d="M125.627 20.9634C124.462 20.9634 123.546 20.5868 122.878 19.8324C122.21 19.0781 121.875 18.0859 121.875 16.855C121.875 15.5851 122.209 14.5846 122.878 13.8523C123.546 13.12 124.488 12.7539 125.706 12.7539C126.88 12.7539 127.799 13.1274 128.465 13.8744C129.131 14.6214 129.464 15.6146 129.464 16.856C129.464 18.1112 129.127 19.1096 128.455 19.8514C127.783 20.5931 126.839 20.9634 125.627 20.9634ZM125.677 19.5389C126.312 19.5389 126.789 19.3074 127.109 18.8445C127.429 18.3816 127.589 17.7188 127.589 16.855C127.589 15.9817 127.429 15.3158 127.109 14.8581C126.789 14.4004 126.307 14.1711 125.664 14.1711C125.029 14.1711 124.55 14.4015 124.229 14.8623C123.907 15.3231 123.746 15.9902 123.746 16.8634C123.746 17.723 123.908 18.3837 124.233 18.8466C124.556 19.3074 125.038 19.5389 125.677 19.5389Z" fill="#0A1226"></path><path d="M136.674 20.1932C136.049 20.7066 135.226 20.9623 134.205 20.9623C133.183 20.9623 132.362 20.7066 131.739 20.1964C131.116 19.6861 130.805 18.937 130.805 17.9491V12.9453H132.687V17.8775C132.687 18.4646 132.81 18.8897 133.055 19.1516C133.301 19.4147 133.691 19.5451 134.225 19.5451C134.75 19.5451 135.133 19.4147 135.374 19.1548C135.615 18.8949 135.736 18.4688 135.736 17.8775V12.9453H137.612V17.9491C137.612 18.9328 137.299 19.6808 136.674 20.1932Z" fill="#0A1226"></path><path d="M139.32 20.813V12.9464H140.831L141.038 13.9417C141.84 13.1495 142.73 12.7539 143.709 12.7539C144.625 12.7539 145.311 13.018 145.767 13.5451C146.222 14.0722 146.45 14.8371 146.45 15.8397V20.8151H144.568V16.0691C144.563 15.4347 144.461 14.9591 144.26 14.6445C144.06 14.3299 143.699 14.1721 143.179 14.1721C142.773 14.1721 142.403 14.2763 142.066 14.4836C141.73 14.6908 141.486 14.9528 141.333 15.2674C141.242 15.6398 141.197 16.2122 141.197 16.9854V20.8151H139.32V20.813Z" fill="#0A1226"></path><path d="M151.745 20.9636C150.542 20.9636 149.606 20.6059 148.935 19.8894C148.265 19.174 147.93 18.1503 147.93 16.8183C147.93 15.5295 148.281 14.53 148.986 13.8188C149.69 13.1076 150.617 12.752 151.767 12.752C152.687 12.752 153.466 12.9497 154.1 13.3464L153.656 14.6847C153.007 14.3459 152.403 14.1765 151.846 14.1765C151.211 14.1765 150.711 14.4037 150.346 14.8561C149.981 15.3096 149.798 15.9703 149.798 16.8394C149.798 17.7179 149.978 18.3859 150.339 18.8436C150.7 19.3013 151.209 19.5306 151.868 19.5306C152.555 19.5306 153.215 19.3276 153.851 18.9225L154.03 20.347C153.7 20.5669 153.36 20.7237 153.006 20.8194C152.652 20.9152 152.232 20.9636 151.745 20.9636Z" fill="#0A1226"></path><path d="M155.555 11.8007V10.1973H157.437V11.8007H155.555ZM155.555 20.8129V12.9464H157.431V20.8129H155.555Z" fill="#0A1226"></path><path d="M162.141 20.9203C161.601 20.9203 161.154 20.8572 160.798 20.7309C160.443 20.6046 160.163 20.4026 159.958 20.1259C159.752 19.8492 159.609 19.5199 159.528 19.138C159.447 18.7561 159.406 18.2816 159.406 17.7135V10.0468L161.282 9.9248V17.6767C161.282 18.3826 161.365 18.8613 161.533 19.1117C161.7 19.3621 162.024 19.4873 162.506 19.4873C162.745 19.4873 163.048 19.461 163.415 19.4084L163.465 20.7467C163.46 20.7467 163.402 20.7583 163.29 20.7825C163.177 20.8067 163.07 20.8266 162.968 20.8435C162.864 20.8603 162.735 20.8771 162.577 20.894C162.419 20.9108 162.274 20.9203 162.141 20.9203Z" fill="#0A1226"></path><defs><clipPath id="clip0_6082_24923"><rect width="6" height="6" fill="white" transform="translate(162 5)"></rect></clipPath></defs></svg>