<svg width="18" height="18" viewBox="0 0 18 18" fill="none" xmlns="http://www.w3.org/2000/svg">
<path d="M15.7134 9.51815L15.0839 9.40233C15.0827 9.40882 15.0816 9.41533 15.0806 9.42186L15.7134 9.51815ZM17.0004 2.52383L17.6298 2.63965C17.6642 2.45277 17.6138 2.26028 17.4922 2.11426C17.3706 1.96825 17.1904 1.88381 17.0004 1.88381V2.52383ZM1 0.359981C0.646527 0.359981 0.359981 0.646527 0.359981 1C0.359981 1.35347 0.646527 1.64002 1 1.64002V0.359981ZM3.2262 1.56381L3.84801 1.4122L3.84725 1.40915L3.2262 1.56381ZM5.59847 11.2934L6.22101 11.1448L6.22027 11.1418L5.59847 11.2934ZM15.6094 13.061C15.9629 13.061 16.2494 12.7745 16.2494 12.421C16.2494 12.0675 15.9629 11.781 15.6094 11.781V13.061ZM5.52157 10.7829H15.0316V9.5029H5.52157V10.7829ZM15.0316 10.7829C15.7118 10.7829 16.2475 10.2623 16.3461 9.61444L15.0806 9.42186C15.0747 9.46102 15.0583 9.48328 15.0467 9.49372C15.0408 9.4991 15.0362 9.5014 15.0341 9.50225C15.0323 9.50298 15.0317 9.5029 15.0316 9.5029V10.7829ZM16.3428 9.63397L17.6298 2.63965L16.3709 2.40801L15.0839 9.40233L16.3428 9.63397ZM17.0004 1.88381H3.43451V3.16385H17.0004V1.88381ZM7.31562 15.4762C7.31562 16.0203 6.92569 16.36 6.56426 16.36V17.64C7.7397 17.64 8.59565 16.6152 8.59565 15.4762H7.31562ZM6.56426 16.36C6.20283 16.36 5.81291 16.0203 5.81291 15.4762H4.53287C4.53287 16.6152 5.38883 17.64 6.56426 17.64V16.36ZM5.81291 15.4762C5.81291 14.9321 6.20283 14.5924 6.56426 14.5924V13.3123C5.38883 13.3123 4.53287 14.3371 4.53287 15.4762H5.81291ZM6.56426 14.5924C6.92569 14.5924 7.31562 14.9321 7.31562 15.4762H8.59565C8.59565 14.3371 7.7397 13.3123 6.56426 13.3123V14.5924ZM14.9692 15.4762C14.9692 16.0203 14.5793 16.36 14.2178 16.36V17.64C15.3933 17.64 16.2492 16.6152 16.2492 15.4762H14.9692ZM14.2178 16.36C13.8564 16.36 13.4665 16.0203 13.4665 15.4762H12.1864C12.1864 16.6152 13.0424 17.64 14.2178 17.64V16.36ZM13.4665 15.4762C13.4665 14.9321 13.8564 14.5924 14.2178 14.5924V13.3123C13.0424 13.3123 12.1864 14.3371 12.1864 15.4762H13.4665ZM14.2178 14.5924C14.5793 14.5924 14.9692 14.9321 14.9692 15.4762H16.2492C16.2492 14.3371 15.3933 13.3123 14.2178 13.3123V14.5924ZM1 1.64002H2.55136V0.359981H1V1.64002ZM2.55136 1.64002C2.55148 1.64002 2.55151 1.64002 2.55162 1.64004C2.55175 1.64006 2.55228 1.64017 2.55327 1.64054C2.55521 1.64127 2.55968 1.64332 2.56573 1.64835C2.57773 1.65833 2.59557 1.67999 2.60515 1.71846L3.84725 1.40915C3.7008 0.821049 3.19038 0.359981 2.55136 0.359981V1.64002ZM2.6044 1.71541L4.97667 11.445L6.22027 11.1418L3.848 1.4122L2.6044 1.71541ZM4.97593 11.442C5.19775 12.3714 5.98981 13.061 6.94114 13.061V11.781C6.64023 11.781 6.31921 11.5563 6.22101 11.1448L4.97593 11.442ZM6.94114 13.061H15.6094V11.781H6.94114V13.061Z" fill="#536476"/>
</svg>
